# xmcd
#
# Track frame offsets: 
#        150
#        17017
#        28317
#        41255
#        57827
#        79967
#        94330
#        108345
#        125052
#        140742
#        165180
#        180627
#        192480
#        204962
#
# Disc length: 2965 seconds
#
# Revision: 0
# Processed by: cddbd v1.4PL0 Copyright (c) Steve Scherf et al.
# Submitted via: ExactAudioCopy v0.90a11
#
DISCID=be0b930e
DTITLE=Various Artist - Uprooted
DYEAR=1900
DGENRE=
TTITLE0=Robbie Fulks - The Buck Starts Here
TTITLE1=He Don't Care About Me - Kelly Willis
TTITLE2=Pity Party - Dale Watson
TTITLE3=Amy Rigby - Beer and Kisses
TTITLE4=Dissatisfied - Kevin Gordon
TTITLE5=Tom Russell - Box Of Visions
TTITLE6=The John Deere Tractor Song - Don Walser
TTITLE7=Wayne Hancock - Thunderstorms and Neon Signs
TTITLE8=River Under The Road - ana egge
TTITLE9=Boiling Water - Trish Murphy
TTITLE10=Mother Nature and Father Time - Gwil Owen
TTITLE11=Jackson TN - Paul Burch
TTITLE12=Libbi Bosworth - East Texas Pines
TTITLE13=Take That Ride - rb morris
EXTD=
EXTT0=
EXTT1=
EXTT2=
EXTT3=
EXTT4=
EXTT5=
EXTT6=
EXTT7=
EXTT8=
EXTT9=
EXTT10=
EXTT11=
EXTT12=
EXTT13=
PLAYORDER=
